<svg width="12" height="12" viewBox="0 0 12 12" fill="none" xmlns="http://www.w3.org/2000/svg">
<path d="M3.99867 10.0016L1 10.5413L1.49978 7.50268L8.22674 0.795666C8.31974 0.70198 8.43024 0.627619 8.55204 0.576873C8.67384 0.526127 8.80454 0.5 8.93644 0.5C9.06844 0.5 9.19904 0.526127 9.32084 0.576873C9.44264 0.627619 9.55324 0.70198 9.64614 0.795666L10.7056 1.85519C10.7993 1.94812 10.8737 2.05867 10.9244 2.18047C10.9752 2.30228 11.0013 2.43292 11.0013 2.56488C11.0013 2.69683 10.9752 2.82748 10.9244 2.94928C10.8737 3.07109 10.7993 3.18164 10.7056 3.27456L3.99867 10.0016Z" stroke="black" stroke-linecap="round" stroke-linejoin="round"/>
</svg>
