<svg width="12" height="12" viewBox="0 0 12 12" fill="none" xmlns="http://www.w3.org/2000/svg">
<path d="M3.99867 10.5016L1 11.0413L1.49978 8.00268L8.22674 1.29567C8.31974 1.20198 8.43024 1.12762 8.55204 1.07687C8.67384 1.02613 8.80454 1 8.93644 1C9.06844 1 9.19904 1.02613 9.32084 1.07687C9.44264 1.12762 9.55324 1.20198 9.64614 1.29567L10.7056 2.35519C10.7993 2.44812 10.8737 2.55867 10.9244 2.68047C10.9752 2.80228 11.0013 2.93292 11.0013 3.06488C11.0013 3.19683 10.9752 3.32748 10.9244 3.44928C10.8737 3.57109 10.7993 3.68164 10.7056 3.77456L3.99867 10.5016Z" stroke="black" stroke-linecap="round" stroke-linejoin="round"/>
</svg>
