<svg width="14" height="15" viewBox="0 0 14 15" fill="none" xmlns="http://www.w3.org/2000/svg">
<path d="M8 13.9429H1.5C1.23478 13.9429 0.98043 13.8375 0.792893 13.65C0.605357 13.4624 0.5 13.2081 0.5 12.9429V1.94287C0.5 1.67765 0.605357 1.4233 0.792893 1.23576C0.98043 1.04823 1.23478 0.942871 1.5 0.942871H9" stroke="#000001" stroke-linecap="round" stroke-linejoin="round"/>
<path d="M10.5 3.94287L12 0.942871L13.5 3.94287V12.4429C13.5 12.8407 13.342 13.2222 13.0607 13.5035C12.7794 13.7848 12.3978 13.9429 12 13.9429C11.6022 13.9429 11.2206 13.7848 10.9393 13.5035C10.658 13.2222 10.5 12.8407 10.5 12.4429V3.94287Z" stroke="#000001" stroke-linecap="round" stroke-linejoin="round"/>
<path d="M10.5 9.94287H13.5" stroke="#000001" stroke-linecap="round" stroke-linejoin="round"/>
<path d="M3.5 0.942871V13.9429" stroke="#000001" stroke-linecap="round" stroke-linejoin="round"/>
<path d="M6 4.44287H8" stroke="#000001" stroke-linecap="round" stroke-linejoin="round"/>
</svg>
